PathFileType	4	(X/Y/Z)	OpenSim_Sub02_EMGBaseline_Magnet.trc
DataRate	CameraRate	NumFrames	NumMarkers	Units	OrigDataRate	OrigDataStartFrame	OrigNumFrames
100	100	20	8	m	100	5887	6727
Frame#	Time	torso_imu_offset_imu	pelvis_imu_offset_imu	tibia_r_imu_offset_imu	femur_r_imu_offset_imu	tibia_l_imu_offset_imu	femur_l_imu_offset_imu	toes_r_imu_offset_imu	toes_l_imu_offset_imu
				X1	Y1	Z1	X2	Y2	Z2	X3	Y3	Z3	X4	Y4	Z4	X5	Y5	Z5	X6	Y6	Z6	X7	Y7	Z7	X8		Y8	Z8	

5887	58.86000000	-0.93795651	-0.10856506	-0.05946280	-0.65523816	0.01572075	-0.65039437	-0.20071536	-0.75466772	-0.24146175	-0.63659834	-0.43283901	0.31198659	-0.73856830	0.30117783	0.09219598	-0.72636416	0.28845134	0.28124757	-0.70695223	-0.33069369	-0.12740460	-0.63773438	-0.10633840	-0.53098559
5888	58.87000000	-0.94118761	-0.10971789	-0.06739708	-0.65204109	0.01074327	-0.64983876	-0.18643658	-0.75754019	-0.24305437	-0.64827761	-0.42831349	0.29917412	-0.73723628	0.29849851	0.10784012	-0.72430139	0.28463612	0.28991540	-0.71176266	-0.33502539	-0.09255142	-0.64038985	-0.11490583	-0.52956451
5889	58.88000000	-0.93486719	-0.11201612	-0.06728250	-0.65340685	0.00700906	-0.64792395	-0.16675894	-0.75762103	-0.25021854	-0.65502622	-0.41808702	0.29341106	-0.73707620	0.29981237	0.12009053	-0.71648914	0.29416494	0.29435284	-0.71476624	-0.33622250	-0.05115796	-0.64198257	-0.12571992	-0.52171561
5890	58.89000000	-0.93244289	-0.11384864	-0.06706940	-0.65699990	0.00840101	-0.64090992	-0.14698516	-0.76748595	-0.25082197	-0.66246262	-0.41648920	0.28346727	-0.73160293	0.30312576	0.12868677	-0.71324181	0.29670075	0.30302924	-0.70959812	-0.34132487	-0.00845086	-0.63628310	-0.13212249	-0.51495068
5891	58.90000000	-0.93551975	-0.11694783	-0.07624489	-0.65954279	0.01193817	-0.63721935	-0.13211016	-0.76831942	-0.25415232	-0.67025091	-0.41323858	0.26510186	-0.72814360	0.30830095	0.13408389	-0.70737076	0.30476908	0.31707756	-0.71005414	-0.34416351	0.03543290	-0.63100003	-0.13552187	-0.51631943
5892	58.91000000	-0.92963399	-0.12175979	-0.08419004	-0.65935668	0.01516407	-0.63974130	-0.10945333	-0.76189748	-0.26052225	-0.68277923	-0.40168475	0.24584603	-0.72151406	0.31751944	0.13508792	-0.69573979	0.31582819	0.31577653	-0.70549482	-0.35434871	0.08012889	-0.63079417	-0.14298741	-0.50872947
5893	58.92000000	-0.93246041	-0.12425426	-0.08690571	-0.65887012	0.02512119	-0.63996770	-0.09218591	-0.76349717	-0.27227082	-0.69503855	-0.39112480	0.22938690	-0.72039465	0.32765505	0.12939595	-0.69314195	0.32174977	0.31532433	-0.69739695	-0.35972027	0.12695979	-0.62707317	-0.14845385	-0.50598355
5894	58.93000000	-0.93158725	-0.12261879	-0.08741376	-0.66298810	0.03101778	-0.63769916	-0.07652254	-0.76125973	-0.28543510	-0.70329580	-0.38321182	0.21532763	-0.71892932	0.33694738	0.13037830	-0.68895179	0.33476197	0.32597163	-0.68353525	-0.36616484	0.16907997	-0.62864327	-0.15180881	-0.51094544
5895	58.94000000	-0.93274171	-0.12852781	-0.08284889	-0.65997324	0.03513256	-0.63467654	-0.05509254	-0.75585440	-0.29417952	-0.71718073	-0.37512956	0.19503835	-0.71364269	0.34951969	0.12777834	-0.68383426	0.34722671	0.32747513	-0.66556955	-0.37831899	0.20471660	-0.63206738	-0.15272902	-0.50452354
5896	58.95000000	-0.93458141	-0.13725820	-0.08793492	-0.65634683	0.04530849	-0.63777293	-0.04032490	-0.74873804	-0.30826382	-0.72922053	-0.36599520	0.17215112	-0.71248080	0.36165473	0.11912782	-0.67764092	0.34740629	0.33916446	-0.65150268	-0.38984733	0.24099902	-0.62858196	-0.15350461	-0.50797850
5897	58.96000000	-0.93043226	-0.13948640	-0.08857282	-0.65634882	0.04971572	-0.64388211	-0.02728872	-0.74531720	-0.32512257	-0.73699928	-0.35470587	0.15254869	-0.71081861	0.36633863	0.11412523	-0.66804095	0.34313611	0.34281290	-0.63561512	-0.40531007	0.25932758	-0.62631178	-0.15637831	-0.50616695
5898	58.97000000	-0.93289241	-0.14168059	-0.08704107	-0.65404675	0.06155514	-0.64396837	-0.01311723	-0.73971904	-0.34415752	-0.74688398	-0.34088255	0.13415824	-0.70636187	0.37736664	0.11495536	-0.66749867	0.35027276	0.34445283	-0.61703923	-0.42250576	0.27878878	-0.62523555	-0.15674342	-0.50296809
5899	58.98000000	-0.93171736	-0.14340313	-0.09317142	-0.65251116	0.07146598	-0.63995442	-0.00306774	-0.73403853	-0.35775498	-0.75812907	-0.32741882	0.11328049	-0.70046015	0.37941257	0.12081607	-0.66510863	0.35639136	0.35545491	-0.59932234	-0.44058653	0.29046504	-0.62448477	-0.15982428	-0.50451256
5900	58.99000000	-0.92733589	-0.14704351	-0.09389139	-0.64993910	0.07564493	-0.63800920	0.00430032	-0.72418172	-0.37432645	-0.76695589	-0.31477331	0.09594718	-0.69547176	0.38135008	0.12788412	-0.65534320	0.35663968	0.35414879	-0.57939066	-0.46068702	0.30202781	-0.62810676	-0.16693946	-0.50040441
5901	59	-0.92736218	-0.14952594	-0.09074017	-0.65086892	0.08249556	-0.63668291	0.01269084	-0.70605734	-0.39728822	-0.77240552	-0.30411020	0.08062630	-0.69553980	0.39242874	0.13168608	-0.65382532	0.35761378	0.36408905	-0.56159777	-0.49089565	0.30748684	-0.62544907	-0.16762588	-0.50351430
5902	59.01000000	-0.92419024	-0.15551849	-0.08977908	-0.65707808	0.08872719	-0.63837941	0.01128133	-0.69655419	-0.41033029	-0.78239754	-0.28982864	0.06695986	-0.69390830	0.38926771	0.13400844	-0.65592800	0.35295018	0.36338514	-0.54158714	-0.52470486	0.28037471	-0.62650534	-0.17140816	-0.50076928
5903	59.02000000	-0.92351460	-0.15976636	-0.08850589	-0.65651862	0.09408953	-0.64109657	0.00856009	-0.68890967	-0.42623374	-0.78861793	-0.27781587	0.05818127	-0.68669312	0.39287555	0.14139492	-0.65330729	0.35222785	0.36483526	-0.52205381	-0.55698214	0.24762156	-0.63052233	-0.17509399	-0.49505820
5904	59.03000000	-0.92182186	-0.16143844	-0.08720334	-0.65477432	0.09787205	-0.63610056	0.01410895	-0.67741525	-0.44457836	-0.79357098	-0.26586940	0.04821608	-0.68621084	0.40095420	0.13979952	-0.64874944	0.35322027	0.38219970	-0.50899313	-0.57936696	0.21815355	-0.62392836	-0.17646601	-0.49494954
5905	59.04000000	-0.92316572	-0.16374849	-0.08636086	-0.65730634	0.10280141	-0.63438531	0.00864162	-0.66911484	-0.44926170	-0.80107639	-0.25047367	0.03926906	-0.68961775	0.41059489	0.13772486	-0.64381443	0.35723767	0.38834706	-0.49403681	-0.59765739	0.19702623	-0.62141600	-0.17363898	-0.49361915
5906	59.05000000	-0.92479276	-0.17239897	-0.08340498	-0.65517755	0.11036870	-0.63281331	-0.00116080	-0.66397715	-0.46458395	-0.80553107	-0.23791216	0.03405757	-0.68202515	0.42275987	0.13864615	-0.64324034	0.35912490	0.38670754	-0.48342715	-0.61716235	0.18130314	-0.62542378	-0.17148884	-0.49178723
